<?xml version="1.0" standalone="no"?>
<!DOCTYPE svg PUBLIC "-//W3C//DTD SVG 20010904//EN"
 "http://www.w3.org/TR/2001/REC-SVG-20010904/DTD/svg10.dtd">
<svg version="1.0" xmlns="http://www.w3.org/2000/svg"
 width="512.000000pt" height="512.000000pt" viewBox="0 0 512.000000 512.000000"
 preserveAspectRatio="xMidYMid meet">

<g transform="translate(0.000000,512.000000) scale(0.100000,-0.100000)"
fill="#000000" stroke="none">
<path d="M1096 4663 c-258 -55 -472 -249 -553 -501 -35 -107 -42 -260 -18
-368 32 -146 102 -271 208 -375 l60 -59 -174 0 c-161 0 -178 -2 -224 -24 -87
-40 -135 -115 -135 -208 0 -131 105 -236 237 -238 37 0 45 -5 72 -42 96 -130
96 -315 1 -445 -28 -38 -34 -41 -90 -46 -70 -6 -137 -41 -173 -90 -74 -99 -60
-242 33 -319 l38 -32 -42 -29 c-265 -188 -391 -533 -311 -848 56 -219 221
-419 430 -519 170 -82 -59 -74 2323 -77 1412 -2 2136 0 2161 7 92 25 168 115
178 213 15 148 -102 277 -253 277 -36 0 -47 5 -74 37 -125 142 -125 384 0 526
27 32 38 37 74 37 66 0 135 28 181 75 98 98 98 252 0 350 -60 61 -111 75 -268
75 l-129 0 79 84 c127 133 188 275 200 461 14 218 -73 428 -240 580 -102 93
-251 166 -375 183 l-47 7 3 71 c7 143 -76 238 -219 251 -57 6 -59 7 -93 57
-50 72 -66 126 -66 215 1 84 25 160 73 223 25 32 33 36 88 41 75 7 141 44 183
105 38 54 48 149 21 217 -20 54 -88 117 -143 133 -29 9 -406 12 -1493 11
-1248 -1 -1464 -3 -1523 -16z m474 -382 c0 -20 9 -36 26 -50 27 -21 29 -21
1116 -21 1035 0 1090 -1 1082 -17 -39 -91 -53 -153 -53 -238 -1 -103 10 -158
43 -227 l23 -48 -1321 2 -1321 3 -40 22 c-169 91 -195 316 -52 438 52 45 120
65 219 65 70 0 82 3 103 25 14 13 25 36 25 50 0 25 1 25 75 25 l75 0 0 -29z
m2818 -1108 c192 -74 323 -218 372 -408 24 -92 25 -164 5 -260 -31 -148 -138
-301 -261 -375 -61 -37 -174 -79 -211 -80 -22 0 -23 3 -23 84 l0 84 33 6 c105
21 236 135 277 243 82 212 -10 438 -218 536 l-67 32 -1917 5 -1916 5 -26 24
c-41 39 -32 111 17 131 13 5 839 8 1937 7 l1915 -2 83 -32z m-70 -317 c183
-102 190 -345 14 -457 -25 -16 -50 -29 -54 -29 -4 0 -8 40 -8 89 0 74 -3 92
-21 115 l-20 26 -773 0 c-763 0 -772 0 -794 -20 -32 -30 -30 -82 4 -109 25
-20 39 -21 290 -21 l264 0 0 -45 0 -45 -1246 0 c-1183 0 -1246 1 -1238 18 41
93 56 161 56 252 0 91 -10 134 -57 243 -7 16 76 17 1761 15 l1769 -3 53 -29z
m-1098 -731 l0 -85 -1370 0 c-1461 0 -1416 -1 -1434 45 -17 45 -2 90 39 113
15 8 379 11 1393 12 l1372 0 0 -85z m0 -335 l0 -100 -1233 0 c-1342 0 -1284 2
-1399 -56 -76 -39 -152 -120 -194 -208 -101 -211 -21 -457 187 -579 101 -59
34 -57 1572 -57 l1408 0 24 25 c30 29 32 64 6 96 l-19 24 -1424 5 -1423 5 -57
28 c-107 53 -163 144 -163 267 0 62 5 84 27 125 34 64 90 118 153 147 l50 23
1243 3 1242 2 0 -152 c0 -142 1 -153 22 -175 12 -13 33 -23 46 -23 14 0 122
50 241 111 l215 111 216 -111 c120 -61 227 -111 239 -111 12 0 33 11 46 25 24
23 25 28 25 175 l0 150 179 0 180 0 -24 -42 c-77 -139 -80 -352 -7 -498 l30
-60 -409 0 -410 0 -24 -25 c-31 -30 -32 -71 -3 -102 l21 -23 550 0 549 0 34
-34 c46 -46 46 -86 0 -132 l-34 -34 -2076 0 c-2321 0 -2158 -5 -2316 72 -120
58 -231 170 -288 289 -52 108 -77 226 -69 329 13 166 95 333 215 440 72 64
216 136 307 154 57 12 301 14 1308 15 l1237 1 0 -100z m1716 66 c25 -24 34
-43 34 -66 0 -23 -9 -41 -34 -66 l-34 -34 -316 0 -316 0 0 100 0 100 316 0
316 0 34 -34z"/>
</g>
</svg>
