<?xml version="1.0" standalone="no"?>
<!DOCTYPE svg PUBLIC "-//W3C//DTD SVG 20010904//EN"
 "http://www.w3.org/TR/2001/REC-SVG-20010904/DTD/svg10.dtd">
<svg version="1.0" xmlns="http://www.w3.org/2000/svg"
 width="512.000000pt" height="512.000000pt" viewBox="0 0 512.000000 512.000000"
 preserveAspectRatio="xMidYMid meet">

<g transform="translate(0.000000,512.000000) scale(0.100000,-0.100000)"
fill="#000000" stroke="none">
<path d="M2548 3903 l-3 -227 -345 -256 c-339 -252 -345 -257 -348 -294 l-3
-38 55 7 56 7 0 -96 0 -96 -590 0 -590 0 -23 -37 c-66 -105 -177 -323 -177
-346 0 -25 3 -27 40 -27 l40 0 0 -735 0 -735 -217 -2 c-162 -2 -217 -6 -221
-15 -5 -16 1231 -21 3689 -15 787 2 990 5 987 15 -4 9 -59 13 -221 15 l-217 2
0 735 0 735 28 0 c32 0 52 16 52 40 0 18 -163 324 -188 353 -14 16 -56 17
-604 17 l-588 0 0 94 0 95 38 -3 c49 -4 72 9 72 40 0 25 8 19 -544 428 l-151
112 3 122 3 122 159 0 c111 0 161 4 166 12 5 7 -12 28 -42 54 l-49 43 25 19
c103 81 101 82 -115 82 l-175 0 -2 -227z m277 172 c-16 -14 -33 -25 -37 -25
-20 0 -4 -33 30 -65 l37 -34 -137 -1 -136 0 -4 71 c-2 39 -1 73 1 75 2 2 65 4
140 4 l136 -1 -30 -24z m79 -680 c185 -137 336 -255 336 -262 0 -38 -82 12
-388 239 l-322 239 -128 -94 c-70 -51 -216 -160 -326 -241 -109 -81 -197 -143
-195 -137 5 12 671 510 680 508 3 -1 158 -114 343 -252z m-55 -81 l281 -208 0
-563 c0 -556 0 -563 -20 -563 -20 0 -20 7 -20 554 l0 555 -280 206 c-174 129
-284 204 -292 199 -6 -4 -126 -92 -266 -196 -140 -104 -257 -186 -260 -183 -7
6 -41 -20 277 214 151 111 280 200 286 197 7 -2 139 -98 294 -212z m-244 -85
c13 -6 8 -7 -17 -3 -25 4 -38 2 -38 -5 0 -6 9 -11 20 -11 53 0 110 -57 110
-111 0 -15 4 -19 16 -15 14 5 16 1 11 -33 -12 -93 -58 -136 -145 -136 -103 0
-174 72 -174 175 1 124 102 188 217 139z m-187 -293 c32 -33 33 -36 9 -21 -29
19 -77 91 -77 116 1 8 8 -2 16 -21 8 -19 32 -52 52 -74z m-458 -231 c0 -149
-2 -175 -15 -175 -13 0 -15 24 -15 155 l0 155 -575 0 c-473 0 -575 2 -575 13
0 8 3 17 7 20 3 4 269 7 590 7 l583 0 0 -175z m2461 10 c48 -88 88 -166 89
-172 0 -7 -8 -13 -19 -13 -25 0 -27 3 -116 168 l-77 142 -569 0 c-563 0 -569
0 -569 20 0 20 5 20 586 18 l586 -3 89 -160z m-2093 -217 l2 -188 -80 0 -80 0
0 190 0 191 78 -3 77 -3 3 -187z m300 0 l2 -188 -80 0 -80 0 0 190 0 191 78
-3 77 -3 3 -187z m290 -1 l2 -188 -77 3 -78 3 -3 175 c-1 96 0 180 3 188 3 9
24 12 77 10 l73 -3 3 -188z m-958 -257 c0 -143 -2 -260 -4 -260 -2 0 -11 -3
-20 -6 -14 -6 -16 20 -16 240 l0 246 -615 0 c-608 0 -615 0 -615 20 0 20 7 20
635 20 l635 0 0 -260z m2470 -391 c0 -516 -3 -650 -12 -647 -10 4 -14 141 -16
631 l-2 627 -620 0 c-613 0 -620 0 -620 20 0 20 7 20 635 20 l635 0 0 -651z
m-2273 422 c-10 -4 -27 17 -27 33 0 5 8 1 19 -10 10 -10 14 -21 8 -23z m588
19 c15 -17 16 -20 3 -20 -9 0 -18 9 -21 20 -3 11 -4 20 -3 20 2 0 11 -9 21
-20z m-1647 -182 l2 -188 -80 0 -80 0 0 190 0 191 78 -3 77 -3 3 -187z m300 0
l2 -188 -80 0 -80 0 0 190 0 191 78 -3 77 -3 3 -187z m290 -1 l2 -188 -77 3
-78 3 -3 175 c-1 96 0 180 3 188 3 9 24 12 77 10 l73 -3 3 -188z m768 166 c-7
-7 -26 7 -26 19 0 6 6 6 15 -2 9 -7 13 -15 11 -17z m1102 -165 l2 -188 -80 0
-80 0 0 190 0 191 78 -3 77 -3 3 -187z m300 0 l2 -188 -80 0 -80 0 0 190 0
191 78 -3 77 -3 3 -187z m290 -1 l2 -188 -77 3 -78 3 -3 175 c-1 96 0 180 3
188 3 9 24 12 77 10 l73 -3 3 -188z m-2214 -233 c9 -6 14 -18 10 -27 -3 -8 0
-25 6 -37 16 -29 14 -533 -2 -577 -12 -34 -22 -41 -33 -23 -3 6 -3 10 2 10 11
0 6 530 -5 560 -5 14 -8 30 -5 36 2 6 -3 17 -12 24 -18 15 -20 81 -3 98 10 10
14 6 20 -20 3 -17 14 -37 22 -44z m1230 60 c9 -8 14 -20 11 -25 -9 -13 -1222
-12 -1230 1 -4 6 -4 17 -1 25 5 13 90 15 605 15 533 0 601 -2 615 -16z m-2234
-52 c-7 -3 -16 2 -21 9 -16 25 -9 32 12 13 13 -12 16 -20 9 -22z m305 0 c-9
-9 -35 8 -35 23 0 13 3 12 20 -2 11 -9 17 -19 15 -21z m2155 0 c-7 -3 -16 2
-21 9 -16 25 -9 32 12 13 13 -12 16 -20 9 -22z m305 0 c-9 -9 -35 8 -35 23 0
13 3 12 20 -2 11 -9 17 -19 15 -21z m-2160 0 c-7 -8 -35 7 -35 18 0 6 7 6 20
-2 10 -7 17 -14 15 -16z m2460 0 c-7 -8 -35 7 -35 18 0 6 7 6 20 -2 10 -7 17
-14 15 -16z m-1866 -26 c6 -7 9 -21 5 -30 -9 -23 -152 -24 -160 -1 -4 8 -1 22
6 30 17 20 133 21 149 1z m823 -8 c-2 -10 2 -27 8 -38 14 -27 14 -550 0 -564
-6 -6 -10 -56 -10 -113 0 -94 -2 -103 -19 -103 -16 0 -18 9 -20 75 -1 41 3 84
9 95 14 26 15 544 2 580 -5 14 -7 31 -5 38 4 9 -74 12 -371 12 -370 0 -376 0
-376 20 0 20 5 20 393 18 366 -3 392 -4 389 -20z m187 8 c6 -7 9 -21 5 -30 -9
-23 -152 -24 -160 -1 -4 8 -1 22 6 30 17 20 133 21 149 1z m-1024 -336 c0
-220 -2 -255 -15 -255 -13 0 -15 34 -18 238 l-2 237 -45 0 c-31 0 -45 4 -45
13 0 23 13 28 70 25 l55 -3 0 -255z m1010 0 c0 -220 -2 -255 -15 -255 -13 0
-15 34 -18 238 l-2 237 -45 0 c-31 0 -45 4 -45 13 0 23 13 28 70 25 l55 -3 0
-255z m-2027 47 l2 -188 -77 3 -78 3 -3 188 -2 188 77 -3 78 -3 3 -188z m297
3 l0 -185 -77 -3 -78 -3 0 191 0 191 78 -3 77 -3 0 -185z m295 0 l0 -191 -77
3 -78 3 -3 175 c-1 96 0 180 2 187 4 9 29 13 81 13 l75 0 0 -190z m1868 -3 l2
-188 -77 3 -78 3 -3 188 -2 188 77 -3 78 -3 3 -188z m297 3 l0 -185 -77 -3
-78 -3 0 191 0 191 78 -3 77 -3 0 -185z m295 0 l0 -191 -77 3 -78 3 -3 175
c-1 96 0 180 2 187 4 9 29 13 81 13 l75 0 0 -190z m-1506 6 c29 -17 56 -44 73
-74 28 -47 28 -48 31 -259 3 -210 3 -213 -17 -213 -21 0 -21 4 -21 203 0 191
-1 205 -22 247 -33 63 -66 83 -142 88 -47 3 -72 0 -97 -13 -32 -17 -33 -17
-20 -1 49 59 137 68 215 22z m-285 -78 c-15 -44 -18 -87 -19 -260 0 -181 -2
-208 -16 -208 -13 0 -15 26 -12 218 l3 219 28 41 c15 23 29 42 31 42 1 0 -5
-24 -15 -52z m-1410 -155 c2 -2 -3 -3 -12 -3 -9 0 -22 10 -28 23 l-12 22 24
-20 c13 -11 26 -21 28 -22z m287 0 c-8 -8 -36 10 -36 25 0 13 3 12 20 -3 11
-10 18 -20 16 -22z m300 0 c-8 -8 -36 10 -36 23 0 11 4 10 20 -3 11 -9 18 -18
16 -20z m1873 0 c2 -2 -3 -3 -12 -3 -9 0 -22 10 -28 23 l-12 22 24 -20 c13
-11 26 -21 28 -22z m287 0 c-8 -8 -36 10 -36 25 0 13 3 12 20 -3 11 -10 18
-20 16 -22z m300 0 c-8 -8 -36 10 -36 23 0 11 4 10 20 -3 11 -9 18 -18 16 -20z
m-1868 -125 c8 -8 12 -45 12 -100 l0 -88 -85 0 -85 0 0 100 0 100 73 0 c43 0
78 -5 85 -12z m1010 0 c8 -8 12 -45 12 -100 l0 -88 -85 0 -85 0 0 100 0 100
73 0 c43 0 78 -5 85 -12z m-1200 -116 l3 -72 -626 0 -625 0 0 70 0 70 613 2
c336 2 617 3 622 2 6 0 11 -33 13 -72z m2492 -3 l0 -69 -625 0 -625 0 0 70 0
70 618 2 c339 2 620 2 625 0 4 -2 7 -34 7 -73z"/>
<path d="M850 1100 c0 -6 55 -10 144 -10 86 0 147 4 151 10 4 6 -47 10 -144
10 -94 0 -151 -4 -151 -10z"/>
<path d="M1460 1100 c0 -6 35 -10 85 -10 50 0 85 4 85 10 0 6 -35 10 -85 10
-50 0 -85 -4 -85 -10z"/>
<path d="M3850 1100 c0 -6 37 -10 90 -10 53 0 90 4 90 10 0 6 -37 10 -90 10
-53 0 -90 -4 -90 -10z"/>
<path d="M4060 1100 c0 -6 57 -10 150 -10 93 0 150 4 150 10 0 6 -57 10 -150
10 -93 0 -150 -4 -150 -10z"/>
</g>
</svg>
